PathFileType	4	(X/Y/Z)	 s10c0103.trc
DataRate	CameraRate	NumFrames	NumMarkers	Units	OrigDataRate	OrigDataStartFrame	OrigNumFrames
200	200	6	50	mm	200	251	2000
Frame#	Time	racr			lacr			c7			jug			rlel			rdr			llel			ldr			s2			lic			ric			lasi			rasi			rpsi			lpsi			rgt			lgt			rth1			rth2			rth3			rth4			rlfc			rmfc			rsh1			rsh2			rsh3			rsh4			rlmal			rmmal			rcal			rtoe			rmt5			lth1			lth2			lth4			lth3			llfc			lmfc			llmal			lmmal			lcal			lmt5			lsh1			lsh2			lsh3			lsh4			ltoe			SBIKE			LBIKE			RBIKE			
		X1	Y1	Z1	X2	Y2	Z2	X3	Y3	Z3	X4	Y4	Z4	X5	Y5	Z5	X6	Y6	Z6	X7	Y7	Z7	X8	Y8	Z8	X9	Y9	Z9	X10	Y10	Z10	X11	Y11	Z11	X12	Y12	Z12	X13	Y13	Z13	X14	Y14	Z14	X15	Y15	Z15	X16	Y16	Z16	X17	Y17	Z17	X18	Y18	Z18	X19	Y19	Z19	X20	Y20	Z20	X21	Y21	Z21	X22	Y22	Z22	X23	Y23	Z23	X24	Y24	Z24	X25	Y25	Z25	X26	Y26	Z26	X27	Y27	Z27	X28	Y28	Z28	X29	Y29	Z29	X30	Y30	Z30	X31	Y31	Z31	X32	Y32	Z32	X33	Y33	Z33	X34	Y34	Z34	X35	Y35	Z35	X36	Y36	Z36	X37	Y37	Z37	X38	Y38	Z38	X39	Y39	Z39	X40	Y40	Z40	X41	Y41	Z41	X42	Y42	Z42	X43	Y43	Z43	X44	Y44	Z44	X45	Y45	Z45	X46	Y46	Z46	X47	Y47	Z47	X48	Y48	Z48	X49	Y49	Z49	X50	Y50	Z50	
251	1.2550	425.750591	1244.631719	6.281930	454.335540	1296.567987	-311.827332	416.452069	1318.800131	-163.222705	425.457812	1172.775882	-170.761731	426.690349	969.360983	39.437651	632.180821	893.104293	-5.617122	522.956523	1049.584450	-428.446524	662.807173	880.499389	-375.660520	-100.766582	1116.190656	-206.545112	68.659367	1116.676090	-359.267690	82.882895	1096.017393	-81.233543	82.782601	1033.725985	-336.708248	73.241834	1017.786088	-81.411961	-48.803402	1165.996704	-151.516510	-41.294726	1180.286921	-261.428603	-33.253953	1007.753652	-22.790149	-42.558406	1006.011888	-408.227884	57.712986	891.440574	-4.287304	138.882013	855.158876	-18.231392	185.847415	784.863086	-30.801853	160.040252	884.880053	-24.027554	273.752237	718.739353	-48.645700	257.303257	706.775026	-163.156680	238.301844	608.006919	-17.242668	253.162431	521.096509	-30.572107	224.281984	440.010463	-33.699039	281.305001	521.887282	-56.477937	208.173530	340.591805	-49.085572	231.794482	358.522407	-132.028145	159.931253	313.278828	-96.933576	402.210873	313.617737	-79.577445	319.591024	279.876702	-21.158575	52.721153	918.153205	-429.578025	135.831836	894.356518	-419.694487	153.126671	924.032151	-406.817636	198.764003	831.150421	-421.413577	280.197383	755.318717	-405.729884	281.959190	742.002453	-282.595836	-0.129253	497.443924	-381.180068	16.414599	491.864157	-300.707234	-57.588143	508.690222	-333.060130	32.221883	355.261925	-396.161458	183.813750	677.291287	-430.693006	145.536156	599.997914	-409.107875	70.349767	552.688576	-400.464245	168.255358	586.102921	-381.524040	108.904936	316.093509	-337.560786	-203.921230	832.493963	-224.320218	-78.196060	81.820128	-423.614579	-102.499031	80.497440	-24.401470	
252	1.2600	426.188679	1243.457786	6.985545	455.284574	1296.376378	-310.430876	417.111181	1318.354250	-162.149884	425.567512	1172.262989	-170.033107	426.341973	968.405939	39.321305	632.115063	893.001996	-5.809986	523.258049	1049.410417	-428.419386	662.780600	880.593908	-375.810954	-100.592603	1117.037352	-205.538988	68.567969	1118.197748	-358.946720	83.192360	1096.097698	-81.079394	82.691769	1035.029953	-336.895602	73.799086	1017.845125	-81.557839	-48.315561	1166.405878	-150.769259	-41.191530	1181.671411	-260.175457	-32.525882	1007.723130	-22.688578	-42.495530	1008.179980	-407.994511	57.165837	890.861408	-4.330556	137.859521	853.573585	-18.488475	184.103586	782.860478	-31.229879	159.401529	883.180705	-24.277576	271.481983	715.916431	-49.265217	255.001566	704.547165	-163.565743	236.370359	605.251446	-17.497667	251.469864	518.422042	-30.808579	222.709363	437.142675	-33.930099	279.824745	519.217745	-56.886678	207.296795	337.521475	-49.098048	231.155790	355.295305	-131.947150	159.072774	310.248236	-97.049110	401.448941	309.930520	-79.730654	318.795509	276.421805	-21.277046	53.153876	920.645724	-429.356127	136.303852	897.186443	-419.439883	153.447852	926.883976	-406.355668	199.483417	833.979250	-421.300417	281.305216	758.511515	-406.005574	283.284028	745.001878	-282.526154	0.477213	500.811938	-381.205229	17.200174	495.258486	-300.728026	-57.034192	512.062824	-332.954071	33.048030	358.681489	-396.101120	184.866282	680.370773	-430.760641	146.519073	603.028819	-409.178032	71.171254	555.882584	-400.491421	169.158250	589.123474	-381.459323	109.871459	319.571810	-337.492240	-203.873248	832.478620	-224.307047	-78.240634	81.843001	-423.643086	-102.572583	80.478519	-24.465504	
253	1.2650	426.718077	1242.295201	7.487114	456.197789	1296.224037	-309.167381	417.755336	1317.898676	-161.022781	425.760266	1171.697552	-169.334706	425.984753	967.586317	39.311279	632.029177	892.936258	-5.957043	523.499951	1049.221035	-428.312120	662.740225	880.637964	-375.917068	-100.404276	1117.989197	-204.613657	68.541044	1119.808697	-358.733756	83.492155	1096.141057	-80.904993	82.563991	1036.228170	-337.058562	74.392122	1017.912804	-81.565279	-48.066751	1167.016330	-149.732002	-41.016332	1182.644710	-259.186322	-31.809303	1007.865568	-22.581902	-42.144106	1010.200592	-407.968266	56.662678	890.387198	-4.339351	136.894470	852.067438	-18.696582	182.372787	781.067246	-31.496283	158.731231	881.601440	-24.522507	269.198088	713.239172	-49.673133	252.621996	702.061277	-163.807665	234.534484	602.660792	-17.766907	249.850846	515.896720	-31.023305	221.298776	434.430369	-34.186028	278.248174	516.745484	-57.121907	206.567391	334.516028	-48.981088	230.264222	352.373597	-131.810320	158.462364	307.709252	-97.083872	400.757140	306.256622	-79.917969	317.986535	273.046587	-21.344955	53.541458	923.111160	-429.130362	136.788417	899.919013	-419.151090	153.764169	929.592831	-405.908817	200.240572	836.978506	-421.234894	282.461115	761.625145	-406.198941	284.435991	747.681482	-282.439980	1.026023	504.049896	-381.094936	17.765356	498.813725	-300.738489	-56.397771	515.294186	-332.949826	33.918635	362.141899	-395.959017	185.911223	683.343256	-430.841278	147.361766	606.113333	-409.174994	72.034941	559.104084	-400.464255	170.027092	592.064957	-381.493890	110.796147	323.072637	-337.468055	-203.874871	832.479218	-224.327681	-78.274010	81.847090	-423.665838	-102.603457	80.470648	-24.509356	
254	1.2700	427.160709	1241.334761	8.453749	457.036545	1296.180501	-307.968580	418.389938	1317.418336	-159.900505	425.980544	1171.281693	-168.641234	425.616146	966.810205	39.362698	631.961184	892.886095	-6.067504	523.673722	1049.120404	-428.167227	662.679302	880.665715	-375.947154	-100.162502	1118.810058	-203.736723	68.567071	1121.378687	-358.537108	83.868422	1096.306041	-80.685991	82.443266	1037.411016	-337.277260	75.041922	1018.024393	-81.502296	-47.856377	1167.700977	-148.622642	-39.608639	1184.644804	-260.044920	-31.116103	1008.137405	-22.470467	-42.004826	1012.266164	-407.835032	56.085486	890.078498	-4.402180	135.906919	851.150761	-18.873517	180.697148	779.495036	-31.614601	158.033965	880.273151	-24.780426	266.907120	710.738518	-49.969398	250.347121	699.644023	-164.058943	232.604076	600.099761	-17.878126	248.313336	513.439148	-31.118711	220.103970	431.851215	-34.238906	276.681526	514.438219	-57.260610	205.977251	331.798229	-48.819910	229.522647	349.455491	-131.636864	157.724857	305.021788	-96.805059	400.122867	302.479356	-80.010354	317.174352	269.660320	-21.354055	53.939363	925.514869	-428.901950	137.300162	902.541109	-418.863216	154.158491	932.271152	-405.483185	200.925577	839.740166	-421.132108	283.595869	764.384794	-406.183316	285.559083	750.222315	-282.428990	1.638380	507.324622	-381.139723	18.416619	502.032454	-300.653851	-55.869938	518.580754	-332.901049	34.922399	365.555282	-395.919322	186.912244	686.264158	-430.855309	148.485268	610.121483	-409.666493	72.787693	562.285852	-400.402343	170.913572	595.087994	-381.683109	111.780664	326.755671	-337.380123	-203.893952	832.471323	-224.344690	-78.279459	81.845208	-423.693501	-102.617720	80.480692	-24.522959	
255	1.2750	427.771980	1240.446401	9.282514	457.861275	1296.127772	-306.830633	418.953081	1317.011711	-158.819890	426.062341	1171.013985	-167.919983	425.436082	966.190751	39.662236	631.849743	892.840347	-6.093320	523.829185	1049.129972	-427.909243	662.635475	880.712499	-375.938246	-99.904575	1119.677901	-202.864939	68.619154	1122.812348	-358.298901	83.128978	1096.287180	-80.811434	82.320633	1038.527650	-337.487417	75.599817	1018.137133	-81.620320	-47.483847	1168.332735	-147.659084	-39.172970	1185.468322	-259.372073	-30.464136	1008.529181	-22.369569	-41.866813	1014.148943	-407.664289	55.522393	889.841186	-4.296917	132.841209	849.381974	-20.304538	179.033756	778.016225	-31.563962	157.398620	879.089186	-24.914120	264.676230	708.307932	-50.143491	248.129262	697.241229	-164.149351	230.712306	597.605555	-17.874438	246.951018	511.003032	-31.108468	218.997617	429.262300	-34.247222	275.136689	512.168680	-57.176918	205.419710	329.127803	-48.725968	228.831670	346.604903	-131.471791	157.015229	302.648457	-96.835923	399.395810	298.911129	-79.331256	316.316747	266.253728	-21.401997	54.441915	927.865524	-428.711819	137.847824	905.238557	-418.611974	154.592835	934.851278	-405.048306	201.687336	842.470135	-421.028452	284.721365	767.215649	-406.305290	287.224071	753.516751	-282.517778	2.227905	510.591744	-381.141328	19.051189	505.392046	-300.563308	-55.351100	521.734314	-332.898806	36.006785	368.967730	-395.829648	187.913087	689.259509	-430.803648	149.356722	613.129096	-409.715593	73.536253	565.523969	-400.359799	171.800707	598.041229	-381.683932	112.955139	330.394937	-337.327651	-203.878416	832.498427	-224.337899	-78.269854	81.862161	-423.689008	-102.606537	80.476300	-24.502992	
256	1.2800	428.322836	1239.604430	10.061568	458.696520	1296.148342	-305.682208	419.488134	1316.603327	-157.636052	426.203565	1170.733468	-167.159666	425.273729	965.477379	40.052698	631.743813	892.844632	-6.039208	523.965963	1049.208345	-427.569080	662.584304	880.766425	-375.852391	-99.630834	1120.815065	-201.728544	68.806852	1124.376079	-358.065466	83.575209	1096.504797	-80.444227	82.180696	1039.607902	-337.604799	76.192802	1018.297250	-81.539086	-47.218794	1168.870524	-146.545043	-38.895706	1186.697060	-258.625705	-29.781066	1009.008477	-22.223582	-41.637720	1015.998623	-407.550414	55.077897	889.752159	-4.282945	132.018130	848.478665	-20.372948	177.372692	776.676814	-31.476814	156.786025	877.889704	-24.978271	262.411242	705.838905	-50.101869	246.070732	694.823801	-164.166712	228.894250	595.268094	-17.882662	245.523306	508.655073	-31.043163	218.092927	426.830040	-34.082310	273.725214	510.015797	-57.256884	204.932945	326.323483	-48.675464	228.315715	343.683907	-131.346145	157.231206	299.802566	-97.543632	398.666898	295.226996	-79.175136	315.511694	263.046024	-21.360043	54.948721	929.987293	-428.446708	138.409664	907.645716	-418.361013	155.019858	937.330183	-404.554191	202.432901	845.101123	-420.907521	285.951668	769.879765	-406.279319	287.485789	755.220503	-282.655741	3.007430	514.170358	-381.263511	20.123638	508.943991	-300.695853	-54.809455	524.921981	-332.912358	37.014566	372.414566	-395.750891	188.964477	692.150227	-430.732615	150.144019	616.068773	-409.556770	74.280870	568.761767	-400.256400	172.643153	600.971997	-381.688742	114.158405	334.066812	-337.385118	-203.854296	832.458794	-224.313309	-78.246367	81.843264	-423.620979	-102.578216	80.486899	-24.460827	
